<?xml version="1.0" encoding="utf-8"?>
<!-- Generator: Adobe Illustrator 28.1.0, SVG Export Plug-In . SVG Version: 6.00 Build 0)  -->
<svg version="1.1" id="Calque_1" xmlns:serif="http://www.serif.com/"
	 xmlns="http://www.w3.org/2000/svg" xmlns:xlink="http://www.w3.org/1999/xlink" x="0px" y="0px" viewBox="0 0 461.6 529.8"
	 style="enable-background:new 0 0 461.6 529.8;" xml:space="preserve">
<style type="text/css">
	.st0{fill-rule:evenodd;clip-rule:evenodd;}
</style>
<path class="st0" d="M270.1,301.9c7.9,64.4,36.6,126.7,86,176.1l-51.8,51.8c-31.1-31.1-55.6-66.4-73.5-104
	c-17.9,37.6-42.4,72.9-73.5,104L105.4,478c49.4-49.4,78.1-111.7,86-176.1H270.1z M52.4,425c88.4-88.4,88.4-231.7,0-320.1L0,157.2
	c59.5,59.5,59.5,155.9,0,215.3L52.4,425L52.4,425z M409.2,425c-88.4-88.4-88.4-231.7,0-320.1l52.4,52.4
	c-59.5,59.5-59.5,155.9,0,215.3L409.2,425L409.2,425z M191.4,227.9c-7.9-64.4-36.6-126.7-86-176.1L157.2,0
	c31.1,31.1,55.6,66.4,73.5,104c17.9-37.6,42.4-72.9,73.5-104l51.8,51.8c-49.4,49.4-78.1,111.7-86,176.1H191.4L191.4,227.9z"/>
</svg>
