<?xml version="1.0" encoding="utf-8"?>
<!-- Generator: Adobe Illustrator 28.1.0, SVG Export Plug-In . SVG Version: 6.00 Build 0)  -->
<svg version="1.1" id="Calque_1" xmlns="http://www.w3.org/2000/svg" xmlns:xlink="http://www.w3.org/1999/xlink" x="0px" y="0px"
	 viewBox="0 0 47.5 500" style="enable-background:new 0 0 47.5 500;" xml:space="preserve">
<g>
	<path d="M0.7,0h46v13L7.3,27v1h39.4v7.5h-46V22.7L40.2,8.4V7.5H0.7V0z"/>
	<path d="M5.6,77.7C1.9,74.9,0,70,0,63.1c0-6.9,1.9-11.8,5.7-14.6c3.8-2.8,9.7-4.2,17.8-4.2c8.1,0,14.1,1.4,18.1,4.2
		c3.9,2.8,5.9,7.6,5.9,14.5c0,6.9-2,11.7-5.9,14.5c-3.9,2.8-10,4.2-18.1,4.2C15.4,81.8,9.4,80.4,5.6,77.7z M10.5,54.4
		c-2.6,1.5-4,4.4-4,8.7c0,4.3,1.3,7.2,3.9,8.7c2.6,1.5,7,2.3,13.1,2.3s10.6-0.8,13.3-2.3c2.8-1.5,4.2-4.4,4.2-8.6
		c0-4.2-1.4-7.1-4.2-8.7c-2.8-1.6-7.2-2.4-13.3-2.4C17.5,52.1,13.1,52.8,10.5,54.4z"/>
	<path d="M40.1,85.4h6.7V119h-6.7v-13H0.7v-7.5h39.4V85.4z"/>
	<path d="M40.1,136.1h6.7v33.6h-6.7v-13H0.7v-7.5h39.4V136.1z"/>
	<path d="M0.7,203.5h19.9v-19.9H0.7v-7.5h46v7.5H27.1v19.9h19.6v7.5h-46V203.5z"/>
	<path d="M0.7,221.8h46v29h-6.5v-21.6h-13v17.5h-6.4v-17.5H7.3v21.6H0.7V221.8z"/>
	<path d="M15,291.2v-9.4H0.7v-7.5h46v16.9c0,10.4-5.2,15.7-15.5,15.7c-5.3,0-9.3-1.3-12.1-3.9C16.4,300.3,15,296.4,15,291.2z
		 M21.5,281.8v9.3c0,5.4,3.3,8.1,9.8,8.1c3.1,0,5.4-0.7,6.9-1.9c1.4-1.3,2.1-3.3,2.1-6.1v-9.3H21.5z"/>
	<path d="M0.7,340.1v-25.8h46v7.5H7.4v18.3H0.7z"/>
	<path d="M0.7,342.5l46,11.4v14.9l-46,11.4v-7.5l9.9-2.5v-17.7L0.7,350V342.5z M40.5,359.7L17.2,354v14.7l23.3-5.6V359.7z"/>
	<path d="M0.7,387h46v13L7.3,414v1h39.4v7.5h-46v-12.8l39.5-14.3v-0.9H0.7V387z"/>
	<path d="M0.7,433.4h46v29h-6.5v-21.6h-13v17.5h-6.4v-17.5H7.3v21.6H0.7V433.4z"/>
	<path d="M40.1,466.4h6.7V500h-6.7v-13H0.7v-7.5h39.4V466.4z"/>
</g>
</svg>
