<?xml version="1.0" encoding="utf-8"?>
<!-- Generator: Adobe Illustrator 28.1.0, SVG Export Plug-In . SVG Version: 6.00 Build 0)  -->
<svg version="1.1" id="Calque_1" xmlns="http://www.w3.org/2000/svg" xmlns:xlink="http://www.w3.org/1999/xlink" x="0px" y="0px"
	 viewBox="0 0 54.3 272.1" style="enable-background:new 0 0 54.3 272.1;" xml:space="preserve">
<g>
	<path d="M54.3,239.8H30.8v23.5h23.5v8.8H0v-8.8h23.2v-23.5H0V231h54.3V239.8z"/>
	<path d="M54.3,218.5H0v-34.3h7.7v25.5h15.4V189h7.6v20.7h15.9v-25.5h7.8V218.5z"/>
	<path d="M0,170l21.4-11.7L0,146.5v-9.3l27.6,16.1l26.7-16.1v9.8l-20.5,11.6l20.5,11.9v9.3l-26.3-16.2L0,179.9V170z"/>
	<path d="M7.9,135.1H0V95.5h7.9v15.3h46.5v8.9H7.9C7.9,119.7,7.9,135.1,7.9,135.1z"/>
	<path d="M35,79.4h19.3v8.8H0V67.6c0-12.3,5.8-18.4,17.3-18.4c7.7,0,13,3,15.7,8.9l21.3-9v9.7L35,66.6V79.4z M17.4,58.2
		c-6.5,0-9.8,3.1-9.8,9.4v11.8h19.8v-12c0-3.2-0.9-5.5-2.7-7C22.8,59,20.4,58.2,17.4,58.2z"/>
	<path d="M54.3,44.4L0,31V13.5L54.3,0v8.9l-11.7,2.9v20.9l11.7,2.9V44.4z M7.4,24.2l27.5,6.7V13.6L7.4,20.2V24.2z"/>
</g>
</svg>
