<?xml version="1.0" encoding="utf-8"?>
<!-- Generator: Adobe Illustrator 28.1.0, SVG Export Plug-In . SVG Version: 6.00 Build 0)  -->
<svg version="1.1" id="Calque_1" xmlns="http://www.w3.org/2000/svg" xmlns:xlink="http://www.w3.org/1999/xlink" x="0px" y="0px"
	 viewBox="0 0 272.1 54.4" style="enable-background:new 0 0 272.1 54.4;" xml:space="preserve">
<g>
	<path d="M32.3,54.3V30.8H8.8v23.5H0V0h8.8v23.2h23.5V0h8.8v54.3H32.3z"/>
	<path d="M53.6,54.3V0h34.3v7.7H62.4v15.4h20.7v7.6H62.4v15.9h25.5v7.8L53.6,54.3L53.6,54.3z"/>
	<path d="M102.1,0l11.7,21.4L125.6,0h9.3l-16.1,27.6l16.1,26.7h-9.8l-11.6-20.5l-11.9,20.5h-9.3L108.5,28L92.2,0H102.1z"/>
	<path d="M137,7.9V0h39.6v7.9h-15.3v46.5h-8.9V7.9C152.4,7.9,137,7.9,137,7.9z"/>
	<path d="M192.7,35v19.3h-8.8V0h20.6c12.3,0,18.4,5.8,18.4,17.3c0,7.7-3,13-8.9,15.7l9,21.3h-9.7L205.5,35H192.7z M213.9,17.4
		c0-6.5-3.1-9.8-9.4-9.8h-11.8v19.8h12c3.2,0,5.5-0.9,7-2.7C213.1,22.8,213.9,20.4,213.9,17.4z"/>
	<path d="M227.7,54.3L241.1,0h17.5l13.5,54.3h-8.9l-2.9-11.7h-20.9l-2.9,11.7H227.7z M247.9,7.4l-6.7,27.5h17.3l-6.6-27.5H247.9z"/>
</g>
</svg>
