<?xml version="1.0" encoding="utf-8"?>
<!-- Generator: Adobe Illustrator 28.1.0, SVG Export Plug-In . SVG Version: 6.00 Build 0)  -->
<svg version="1.1" id="Calque_1" xmlns="http://www.w3.org/2000/svg" xmlns:xlink="http://www.w3.org/1999/xlink" x="0px" y="0px"
	 viewBox="0 0 500 47.5" style="enable-background:new 0 0 500 47.5;" xml:space="preserve">
<g>
	<path d="M0,46.8v-46h13l14,39.4h1V0.8h7.5v46H22.7L8.4,7.3H7.5v39.5H0z"/>
	<path d="M77.7,41.9c-2.8,3.7-7.7,5.6-14.6,5.6s-11.8-1.9-14.6-5.7s-4.2-9.7-4.2-17.8s1.4-14.1,4.2-18.1C51.3,2,56.1,0,63,0
		s11.7,2,14.5,5.9s4.2,10,4.2,18.1C81.8,32.1,80.4,38.1,77.7,41.9z M54.4,37c1.5,2.6,4.4,4,8.7,4s7.2-1.3,8.7-3.9
		c1.5-2.6,2.3-7,2.3-13.1s-0.8-10.6-2.3-13.3c-1.5-2.8-4.4-4.2-8.6-4.2s-7.1,1.4-8.7,4.2c-1.6,2.8-2.4,7.2-2.4,13.3
		C52.1,30,52.8,34.4,54.4,37z"/>
	<path d="M85.4,7.4V0.7H119v6.7h-13v39.4h-7.5V7.4C98.5,7.4,85.4,7.4,85.4,7.4z"/>
	<path d="M136.1,7.4V0.7h33.6v6.7h-13v39.4h-7.5V7.4C149.2,7.4,136.1,7.4,136.1,7.4z"/>
	<path d="M203.5,46.8V26.9h-19.9v19.9h-7.5v-46h7.5v19.6h19.9V0.8h7.5v46C211,46.8,203.5,46.8,203.5,46.8z"/>
	<path d="M221.8,46.8v-46h29v6.5h-21.6v13h17.5v6.4h-17.5v13.5h21.6v6.6H221.8z"/>
	<path d="M291.2,32.5h-9.4v14.3h-7.5v-46h16.9c10.4,0,15.7,5.2,15.7,15.5c0,5.3-1.3,9.3-3.9,12.1C300.3,31.1,296.4,32.5,291.2,32.5z
		 M281.8,26h9.3c5.4,0,8.1-3.3,8.1-9.8c0-3.1-0.7-5.4-1.9-6.9c-1.3-1.4-3.3-2.1-6.1-2.1h-9.3V26H281.8z"/>
	<path d="M340.1,46.8h-25.8v-46h7.5v39.3h18.3V46.8z"/>
	<path d="M342.5,46.8l11.4-46h14.9l11.4,46h-7.5l-2.5-9.9h-17.7l-2.5,9.9H342.5z M359.7,7L354,30.3h14.7L363.1,7H359.7z"/>
	<path d="M387,46.8v-46h13l14,39.4h1V0.8h7.5v46h-12.8L395.4,7.3h-0.9v39.5H387z"/>
	<path d="M433.4,46.8v-46h29v6.5h-21.6v13h17.5v6.4h-17.5v13.5h21.6v6.6H433.4z"/>
	<path d="M466.4,7.4V0.7H500v6.7h-13v39.4h-7.5V7.4C479.5,7.4,466.4,7.4,466.4,7.4z"/>
</g>
</svg>
