<?xml version="1.0" encoding="utf-8"?>
<!-- Generator: Adobe Illustrator 28.1.0, SVG Export Plug-In . SVG Version: 6.00 Build 0)  -->
<svg version="1.1" id="Calque_1" xmlns="http://www.w3.org/2000/svg" xmlns:xlink="http://www.w3.org/1999/xlink" x="0px" y="0px"
	 viewBox="0 0 47.5 500" style="enable-background:new 0 0 47.5 500;" xml:space="preserve">
<g>
	<path d="M30.4,492.5h16.4v7.5h-46v-17.5c0-10.4,4.9-15.6,14.6-15.6c6.5,0,11,2.5,13.3,7.5l18-7.6v8.2l-16.4,6.7V492.5z M15.5,474.6
		c-5.5,0-8.3,2.6-8.3,7.9v10H24v-10.1c0-2.7-0.8-4.7-2.3-5.9C20.1,475.2,18,474.6,15.5,474.6z"/>
	<path d="M46.8,458.3h-46v-7.5h46V458.3z"/>
	<path d="M32.5,423.3v9.4h14.3v7.5h-46v-16.9c0-10.4,5.1-15.7,15.4-15.7c5.3,0,9.3,1.3,12.1,3.9C31.1,414.2,32.5,418.1,32.5,423.3z
		 M26,432.7v-9.3c0-5.4-3.3-8.1-9.8-8.1c-3.1,0-5.4,0.7-6.8,1.9c-1.4,1.3-2.1,3.3-2.1,6.1v9.3H26z"/>
	<path d="M7.4,389.8H0.8v-33.6h6.6v13h39.3v7.5H7.4V389.8z"/>
	<path d="M46.8,322.6H26.9v19.9h19.9v7.5h-46v-7.5h19.6v-19.9H0.8v-7.5h46V322.6z"/>
	<path d="M46.8,304.4h-46v-29h6.5v21.6h13v-17.5h6.4v17.5h13.4v-21.6h6.6V304.4z"/>
	<path d="M6.6,238.7c0,5.7,2,8.5,6,8.5c2.1,0,3.5-0.7,4.4-2c0.9-1.3,1.9-4.3,3.2-8.9c1.3-4.6,2.8-7.8,4.6-9.7
		c1.8-1.9,4.6-2.8,8.4-2.8c4.8,0,8.4,1.4,10.8,4.1c2.4,2.8,3.6,6.5,3.6,11.3c0,3.8-0.4,8-1.3,12.6l-0.5,2.4l-6-0.7
		c0.8-6,1.2-10.7,1.2-13.8c0-5.6-2.5-8.3-7.4-8.3c-1.9,0-3.3,0.6-4.3,1.9c-0.9,1.3-1.9,4.1-3,8.5c-1.1,4.4-2.6,7.7-4.5,9.8
		c-1.9,2.1-5,3.2-9.1,3.2c-4.2,0-7.3-1.4-9.4-4.1c-2.1-2.7-3.2-6.5-3.2-11.3c0-3.4,0.4-7.5,1.2-12.2l0.4-2.4l6,0.6
		C6.9,231.7,6.6,236.1,6.6,238.7z"/>
	<path d="M7.4,220H0.8v-33.6h6.6v13h39.3v7.5H7.4V220z"/>
	<path d="M30.4,172.6h16.4v7.5h-46v-17.5c0-10.4,4.9-15.6,14.6-15.6c6.5,0,11,2.5,13.3,7.5l18-7.6v8.2l-16.4,6.7V172.6z M15.5,154.7
		c-5.5,0-8.3,2.6-8.3,7.9v10H24v-10.1c0-2.7-0.8-4.7-2.3-5.9C20.1,155.3,18,154.7,15.5,154.7z"/>
	<path d="M46.8,138.5h-46v-29h6.5V131h13v-17.5h6.4V131h13.4v-21.6h6.6V138.5z"/>
	<path d="M46.8,101.2h-46v-29h6.5v21.6h13V76.2h6.4v17.5h13.4V72.1h6.6V101.2z"/>
	<path d="M7.4,68.3H0.8V34.7h6.6v13h39.3v7.5H7.4V68.3z"/>
	<path d="M6.6,14.9c0,5.7,2,8.5,6,8.5c2.1,0,3.5-0.7,4.4-2c0.9-1.3,1.9-4.3,3.2-8.9c1.3-4.6,2.8-7.8,4.6-9.7C26.5,0.9,29.3,0,33.1,0
		c4.8,0,8.4,1.4,10.8,4.1c2.4,2.8,3.6,6.5,3.6,11.3c0,3.8-0.4,8-1.3,12.6l-0.5,2.4l-6-0.7c0.8-6,1.2-10.7,1.2-13.8
		c0-5.6-2.5-8.3-7.4-8.3c-1.9,0-3.3,0.6-4.3,1.9c-0.9,1.3-1.9,4.1-3,8.5c-1.1,4.4-2.6,7.7-4.5,9.8c-1.9,2.1-5,3.2-9.1,3.2
		c-4.2,0-7.3-1.4-9.4-4.1C1.1,24.1,0,20.4,0,15.6c0-3.4,0.4-7.5,1.2-12.2L1.6,1l6,0.6C6.9,7.9,6.6,12.3,6.6,14.9z"/>
</g>
</svg>
