<?xml version="1.0" encoding="utf-8"?>
<!-- Generator: Adobe Illustrator 28.1.0, SVG Export Plug-In . SVG Version: 6.00 Build 0)  -->
<svg version="1.1" id="Calque_1" xmlns="http://www.w3.org/2000/svg" xmlns:xlink="http://www.w3.org/1999/xlink" x="0px" y="0px"
	 viewBox="0 0 500 47.6" style="enable-background:new 0 0 500 47.6;" xml:space="preserve">
<g>
	<path d="M7.5,30.4v16.4H0v-46h17.5c10.4,0,15.6,4.9,15.6,14.6c0,6.5-2.5,11-7.5,13.3l7.6,18H25l-6.7-16.4L7.5,30.4L7.5,30.4z
		 M25.4,15.5c0-5.5-2.6-8.3-7.9-8.3h-10V24h10.1c2.7,0,4.7-0.8,5.9-2.3C24.8,20.1,25.4,18,25.4,15.5z"/>
	<path d="M41.7,46.8v-46h7.5v46H41.7z"/>
	<path d="M76.7,32.5h-9.4v14.3h-7.5v-46h16.9c10.4,0,15.7,5.1,15.7,15.4c0,5.3-1.3,9.3-3.9,12.1C85.8,31.1,81.9,32.5,76.7,32.5z
		 M67.3,26h9.3c5.4,0,8.1-3.3,8.1-9.8c0-3.1-0.7-5.4-1.9-6.8c-1.3-1.4-3.3-2.1-6.1-2.1h-9.3V26H67.3z"/>
	<path d="M110.2,7.4V0.8h33.6v6.6h-13v39.3h-7.5V7.4H110.2z"/>
	<path d="M177.4,46.8V26.9h-19.9v19.9H150v-46h7.5v19.6h19.9V0.8h7.5v46H177.4z"/>
	<path d="M195.6,46.8v-46h29v6.5H203v13h17.5v6.4H203v13.4h21.6v6.6h-29V46.8z"/>
	<path d="M261.3,6.6c-5.7,0-8.5,2-8.5,6c0,2.1,0.7,3.5,2,4.4s4.3,1.9,8.9,3.2c4.6,1.3,7.8,2.8,9.7,4.6c1.9,1.8,2.8,4.6,2.8,8.4
		c0,4.8-1.4,8.4-4.1,10.8c-2.8,2.4-6.5,3.6-11.3,3.6c-3.8,0-8-0.4-12.6-1.3l-2.4-0.5l0.7-6c6,0.8,10.7,1.2,13.8,1.2
		c5.6,0,8.3-2.5,8.3-7.4c0-1.9-0.6-3.3-1.9-4.3c-1.3-0.9-4.1-1.9-8.5-3c-4.4-1.1-7.7-2.6-9.8-4.5s-3.2-5-3.2-9.1
		c0-4.2,1.4-7.3,4.1-9.4c2.7-2.1,6.5-3.2,11.3-3.2c3.4,0,7.5,0.4,12.2,1.2l2.4,0.4l-0.6,6C268.3,6.9,263.9,6.6,261.3,6.6z"/>
	<path d="M280,7.4V0.8h33.6v6.6h-13v39.3h-7.5V7.4H280z"/>
	<path d="M327.4,30.4v16.4h-7.5v-46h17.5c10.4,0,15.6,4.9,15.6,14.6c0,6.5-2.5,11-7.5,13.3l7.6,18h-8.2l-6.7-16.4L327.4,30.4
		L327.4,30.4z M345.3,15.5c0-5.5-2.6-8.3-7.9-8.3h-10V24h10.1c2.7,0,4.7-0.8,5.9-2.3C344.7,20.1,345.3,18,345.3,15.5z"/>
	<path d="M361.5,46.8v-46h29v6.5H369v13h17.5v6.4H369v13.4h21.6v6.6h-29.1V46.8z"/>
	<path d="M398.8,46.8v-46h29v6.5h-21.6v13h17.6v6.4h-17.5v13.4h21.6v6.6h-29.1V46.8z"/>
	<path d="M431.7,7.4V0.8h33.6v6.6h-13v39.3h-7.5V7.4H431.7z"/>
	<path d="M485.1,6.6c-5.7,0-8.5,2-8.5,6c0,2.1,0.7,3.5,2,4.4c1.3,0.9,4.3,1.9,8.9,3.2c4.6,1.3,7.8,2.8,9.7,4.6
		c1.9,1.7,2.8,4.5,2.8,8.3c0,4.8-1.4,8.4-4.1,10.8c-2.8,2.4-6.5,3.6-11.3,3.6c-3.8,0-8-0.4-12.6-1.3l-2.4-0.5l0.7-6
		c6,0.8,10.7,1.2,13.8,1.2c5.6,0,8.3-2.5,8.3-7.4c0-1.9-0.6-3.3-1.9-4.3c-1.3-0.9-4.1-1.9-8.5-3s-7.7-2.6-9.8-4.5
		c-2.1-1.9-3.2-5-3.2-9.1c0-4.2,1.4-7.3,4.1-9.4c2.8-2.1,6.5-3.2,11.3-3.2c3.4,0,7.5,0.4,12.2,1.2l2.4,0.4l-0.6,6
		C492.1,6.9,487.7,6.6,485.1,6.6z"/>
</g>
</svg>
